<svg xmlns="http://www.w3.org/2000/svg" xmlns:xlink="http://www.w3.org/1999/xlink" width="69.94" height="69.9" viewBox="0 0 69.94 69.9">
  <defs>
    <clipPath id="clip-path">
      <rect width="69.94" height="69.9" fill="none"/>
    </clipPath>
  </defs>
  <g id="Repeat_Grid_5" data-name="Repeat Grid 5" clip-path="url(#clip-path)">
    <g transform="translate(-216.4 -3097)">
      <ellipse id="Ellipse_3" data-name="Ellipse 3" cx="34.97" cy="34.95" rx="34.97" ry="34.95" transform="translate(216.4 3097)" fill="#fff6f3"/>
      <g id="Icon_ionic-md-thumbs-up" data-name="Icon ionic-md-thumbs-up" transform="translate(233.383 3113.95)">
        <path id="Path_1" data-name="Path 1" d="M13.922,31.5H26.016a2.58,2.58,0,0,0,2.4-1.645l4.015-9.52a2.691,2.691,0,0,0,.183-.984V16.636c0-1.484-1.2-3.136-2.658-3.136H21.579l1.266-5.73.042-.422A2.038,2.038,0,0,0,22.3,5.92L20.883,4.5l-8.859,8.951a2.707,2.707,0,0,0-.773,1.905v13.5A2.651,2.651,0,0,0,13.922,31.5Z" fill="#ffaa8f"/>
        <path id="Path_2" data-name="Path 2" d="M3.375,15.75h4.5V31.5h-4.5Z" fill="#ffaa8f"/>
      </g>
    </g>
  </g>
</svg>
