<svg xmlns="http://www.w3.org/2000/svg" xmlns:xlink="http://www.w3.org/1999/xlink" width="69.96" height="69.92" viewBox="0 0 69.96 69.92">
  <defs>
    <clipPath id="clip-path">
      <rect width="69.96" height="69.92" fill="none"/>
    </clipPath>
  </defs>
  <g id="Repeat_Grid_4" data-name="Repeat Grid 4" clip-path="url(#clip-path)">
    <g transform="translate(-216.4 -2912)">
      <ellipse id="Ellipse_3" data-name="Ellipse 3" cx="34.98" cy="34.96" rx="34.98" ry="34.96" transform="translate(216.4 2912)" fill="#f5f4ff"/>
      <path id="Icon_awesome-user-alt" data-name="Icon awesome-user-alt" d="M14.4,16.194A8.1,8.1,0,1,0,6.3,8.1,8.1,8.1,0,0,0,14.4,16.194Zm7.2,1.8h-3.1a9.788,9.788,0,0,1-8.2,0H7.2a7.2,7.2,0,0,0-7.2,7.2v.9a2.7,2.7,0,0,0,2.7,2.7H26.091a2.7,2.7,0,0,0,2.7-2.7v-.9A7.2,7.2,0,0,0,21.593,17.994Z" transform="translate(236.605 2931.66)" fill="#7a65ff"/>
    </g>
  </g>
</svg>
